<svg id="ecpxdDAT1m51" xmlns="http://www.w3.org/2000/svg" xmlns:xlink="http://www.w3.org/1999/xlink" viewBox="0 0 300 300" shape-rendering="geometricPrecision" text-rendering="geometricPrecision"><path style="mix-blend-mode:multiply" d="M0,150C0,67.15729,67.15729,0,150,0c53.34046,0,100.1781,27.84185,126.77324,69.78584l-1.10312-1.10312L257.75204,86.6008C236.01388,49.73466,195.89548,25,149.99999,25c-69.03559,0-125,55.96441-125,125c0,25.26902,7.49795,48.78679,20.39039,68.44987L32.80143,243.62778C12.27445,217.96665,0.00001,185.41675,0.00001,150L0,150ZM149.99999,275c45.89549,0,86.01389-24.73465,107.75205-61.6008l17.91808,17.91808l1.10312-1.10312C250.1781,272.15815,203.34045,300,150,300c-38.84737,0-74.2456-14.76753-100.88716-38.99506l11.7075-23.415C83.50058,260.67922,115.07789,275,149.99999,275Z" fill="#346cdc" stroke-width="0"/><path d="M275,310.97637h-25l-23.58148-49.233662c6.18357-4.906022,11.93037-10.38093,17.16883-16.350013L275,310.97637ZM150,102.195274L50,310.97637h-25L150,50l83.1302,173.560132c-4.87707,6.502686-10.42598,12.429856-16.5377,17.667672L150,102.195274Z" transform="matrix(.999904 0 0 0.999905 0.0144-10.959745)" fill="#7234dc"/></svg>
